<svg width="275" height="388" viewBox="0 0 275 388" fill="none" xmlns="http://www.w3.org/2000/svg">
<mask id="mask0_162_424" style="mask-type:alpha" maskUnits="userSpaceOnUse" x="-90" y="23" width="303" height="303">
<circle cx="61.7939" cy="174.794" r="151.159" transform="rotate(-140.48 61.7939 174.794)" fill="#B88CFF"/>
</mask>
<g mask="url(#mask0_162_424)">
<rect x="61.1538" y="419.289" width="13.5384" height="378.512" transform="rotate(-140.48 61.1538 419.289)" fill="#B88CFF"/>
<rect x="-78.0933" y="304.421" width="13.5384" height="378.512" transform="rotate(-140.48 -78.0933 304.421)" fill="#B88CFF"/>
<rect x="-8.47119" y="361.855" width="13.5384" height="378.512" transform="rotate(-140.48 -8.47119 361.855)" fill="#B88CFF"/>
<rect x="-147.718" y="246.986" width="13.5384" height="378.512" transform="rotate(-140.48 -147.718 246.986)" fill="#B88CFF"/>
<rect x="26.3428" y="390.573" width="13.5384" height="378.512" transform="rotate(-140.48 26.3428 390.573)" fill="#B88CFF"/>
<rect x="-112.905" y="275.704" width="13.5384" height="378.512" transform="rotate(-140.48 -112.905 275.704)" fill="#B88CFF"/>
<rect x="-43.2798" y="333.138" width="13.5384" height="378.512" transform="rotate(-140.48 -43.2798 333.138)" fill="#B88CFF"/>
<rect x="-161.565" y="222.939" width="13.5384" height="378.512" transform="rotate(-140.48 -161.565 222.939)" fill="#B88CFF"/>
<rect x="43.7495" y="404.931" width="13.5384" height="378.512" transform="rotate(-140.48 43.7495 404.931)" fill="#B88CFF"/>
<rect x="-95.5" y="290.062" width="13.5384" height="378.512" transform="rotate(-140.48 -95.5 290.062)" fill="#B88CFF"/>
<rect x="-25.8755" y="347.497" width="13.5384" height="378.512" transform="rotate(-140.48 -25.8755 347.497)" fill="#B88CFF"/>
<rect x="-165.125" y="232.628" width="13.5384" height="378.512" transform="rotate(-140.48 -165.125 232.628)" fill="#B88CFF"/>
<rect x="8.93604" y="376.213" width="13.5384" height="378.512" transform="rotate(-140.48 8.93604 376.213)" fill="#B88CFF"/>
<rect x="-130.312" y="261.346" width="13.5384" height="378.512" transform="rotate(-140.48 -130.312 261.346)" fill="#B88CFF"/>
<rect x="-60.689" y="318.779" width="13.5384" height="378.512" transform="rotate(-140.48 -60.689 318.779)" fill="#B88CFF"/>
<rect x="-167.182" y="211.205" width="13.5384" height="378.512" transform="rotate(-140.48 -167.182 211.205)" fill="#B88CFF"/>
</g>
</svg>
